#!OML:ASF F:\VICON\USERDATA\INSTALL\rory3\rory3.ASF
:FULLY-SPECIFIED
:DEGREES
197
root -0.0960287 21.3579 12.5231 -173.879 -25.5754 -164.041
lowerback 12.1646 -10.0989 23.5436
upperback -5.8156 -9.77192 8.51867
thorax -15.2449 -6.54724 -0.0679258
lowerneck -21.2942 0.462702 -3.21993
upperneck 30.5444 4.61921 -3.19673
head 14.0444 1.70075 0.240582
rclavicle -3.45885e-014 -3.73715e-014
rhumerus 11.0666 -68.278 -12.1791
rradius 16.7085
rwrist 40.4186
rhand 9.02123 -5.99967
rfingers 7.12502
rthumb 34.1974 -32.7394
lclavicle -3.45885e-014 -3.73715e-014
lhumerus 56.9034 -8.01227 41.3455
lradius 23.07
lwrist -44.1171
lhand 10.8628 22.0604
lfingers 7.12502
lthumb 35.9443 48.3906
rfemur -78.6893 -19.0767 -23.4805
rtibia 54.5376
rfoot -29.1714 -36.8564
rtoes 59.2816
lfemur 5.18733 -1.19397 2.445
ltibia 12.5436
lfoot 29.8632 32.8982
ltoes 10.9565
198
root -0.0867039 21.4917 12.3166 -174.351 -25.9994 -165.727
lowerback 11.7928 -10.458 22.2938
upperback -4.69384 -10.5513 7.37324
thorax -14.6983 -6.64138 -0.586524
lowerneck -22.1636 0.351792 -2.71788
upperneck 31.2614 4.31819 -3.02926
head 14.5509 1.62421 0.180924
rclavicle 1.54555e-013 -4.77083e-015
rhumerus 6.07984 -68.8135 -8.20592
rradius 16.5844
rwrist 40.9157
rhand 8.84012 -5.73237
rfingers 7.12502
rthumb 34.0254 -32.5105
lclavicle 1.54555e-013 -4.77083e-015
lhumerus 57.1995 -6.4356 43.5977
lradius 22.2293
lwrist -50.5212
lhand 7.14469 22.4526
lfingers 7.12502
lthumb 32.4134 49.5748
rfemur -73.7727 -13.6918 -35.1005
rtibia 51.9427
rfoot -49.5044 -20.3573
rtoes 62.7906
lfemur 11.0806 -2.38804 2.74188
ltibia 8.11091
lfoot 34.9923 34.1266
ltoes 11.8929
199
root -0.0846443 21.6298 12.1062 -174.921 -26.4286 -167.08
lowerback 11.4525 -10.9279 20.9756
upperback -4.28176 -11.4388 6.60048
thorax -14.0748 -6.88156 -0.710583
lowerneck -22.0654 0.395268 -2.35342
upperneck 32.0044 4.42536 -3.04517
head 14.8743 1.73669 0.144908
rclavicle -4.56211e-014 7.95139e-015
rhumerus 3.2731 -68.8355 -6.03684
rradius 16.383
rwrist 41.1465
rhand 8.88275 -5.29296
rfingers 7.12502
rthumb 34.0659 -32.0621
lclavicle -4.56211e-014 7.95139e-015
lhumerus 56.5086 -4.95341 45.3067
lradius 21.7086
lwrist -55.8421
lhand 4.34948 22.5956
lfingers 7.12502
lthumb 29.7493 50.228
rfemur -70.0988 -6.71119 -46.4596
rtibia 50.4257
rfoot -61.876 -10.2312
rtoes 63.0621
lfemur 18.8666 -3.77617 3.25008
ltibia 1.27222e-014
lfoot 38.9247 38.8261
ltoes 16.4256
200
root -0.0789025 21.7341 11.8831 -175.358 -26.7522 -168.305
lowerback 11.5858 -11.3756 19.731
upperback -4.53911 -12.1022 5.87355
thorax -14.5114 -7.09783 -0.639676
lowerneck -21.002 0.219791 -2.31899
upperneck 33.1348 4.42766 -2.86773
head 15.1542 1.8598 0.232118
rclavicle 1.19271e-014 7.23576e-014
rhumerus 0.281152 -66.589 -3.26604
rradius 16.1
rwrist 39.6216
rhand 8.75742 -5.38351
rfingers 7.12502
rthumb 33.9469 -32.1791
lclavicle 1.19271e-014 7.23576e-014
lhumerus 55.0598 -4.46822 46.127
lradius 21.5308
lwrist -59.5767
lhand 2.95919 23.0444
lfingers 7.12502
lthumb 28.4216 50.9061
rfemur -67.7637 0.603055 -57.0963
rtibia 49.4513
rfoot -71.4405 1.34645
rtoes 63.2289
lfemur 22.0696 -5.02839 3.89519
ltibia 1.59028e-014
lfoot 37.7989 42.0111
ltoes 20.6483
201
root -0.0638828 21.81 11.6503 -175.358 -27.0372 -169.906
lowerback 12.0912 -11.5479 18.7592
upperback -4.98445 -12.2738 4.66585
thorax -15.4943 -7.1432 -1.27818
lowerneck -21.4355 -0.347111 -1.92161
upperneck 35.32 3.80533 -2.45318
head 16.3058 1.78313 0.271157
rclavicle 4.28878e-014 2.14687e-014
rhumerus -5.32315 -63.8533 2.01121
rradius 15.9303
rwrist 37.2018
rhand 8.73203 -5.28666
rfingers 7.12502
rthumb 33.9227 -32.0875
lclavicle 4.28878e-014 2.14687e-014
lhumerus 54.5727 -5.72942 44.9682
lradius 21.6679
lwrist -60.5973
lhand 2.32864 23.7085
lfingers 7.12502
lthumb 27.8188 51.6693
rfemur -66.4584 6.27302 -66.3447
rtibia 49.0795
rfoot -78.8138 9.45812
rtoes 63.434
lfemur 25.0247 -6.26152 4.18394
ltibia 3.49861e-014
lfoot 33.6124 46.879
ltoes 26.2731
202
root -0.0384238 21.8576 11.4125 -174.853 -27.607 -172.272
lowerback 10.7752 -11.6038 16.4275
upperback -4.46477 -13.0177 3.63195
thorax -13.9006 -7.27347 -1.4753
lowerneck -21.717 -0.616664 -1.6505
upperneck 36.0143 3.32461 -2.17156
head 16.7185 1.67994 0.267071
rclavicle 9.86966e-014 1.43125e-014
rhumerus -8.98256 -63.5827 5.43599
rradius 15.975
rwrist 35.2168
rhand 8.9718 -5.30137
rfingers 7.12502
rthumb 34.1505 -32.0516
lclavicle 9.86966e-014 1.43125e-014
lhumerus 55.2736 -5.68578 43.0765
lradius 21.8069
lwrist -60.2248
lhand 2.31887 24.0208
lfingers 7.12502
lthumb 27.8095 51.9831
rfemur -65.0935 9.76819 -74.1574
rtibia 48.958
rfoot -83.6726 15.7614
rtoes 63.7184
lfemur 27.5704 -7.83252 3.83277
ltibia -3.18055e-015
lfoot 29.9709 50.671
ltoes 30.2083
203
root -0.00165313 21.8882 11.1789 -174.347 -28.3612 -174.596
lowerback 10.253 -11.8127 14.2342
upperback -4.44467 -13.7245 2.61237
thorax -13.4023 -7.45624 -1.4471
lowerneck -21.4317 -0.665958 -1.25115
upperneck 36.5906 3.15795 -1.90753
head 16.9435 1.75546 0.297115
rclavicle 7.16867e-014 -2.54444e-014
rhumerus -12.1047 -62.822 8.56411
rradius 16.0486
rwrist 33.1845
rhand 9.33137 -5.22983
rfingers 7.12502
rthumb 34.4919 -31.903
lclavicle 7.16867e-014 -2.54444e-014
lhumerus 55.5003 -6.06309 41.2721
lradius 21.82
lwrist -58.996
lhand 2.7149 24.0545
lfingers 7.12502
lthumb 28.1881 51.955
rfemur -170.213 -12.9315 98.9526
rtibia 49.1216
rfoot 61.9894 11.2878
rtoes 64.0584
lfemur 29.7834 -9.66175 3.60765
ltibia 2.8625e-014
lfoot 32.4902 51.5018
ltoes 29.7164
